<svg width="95" height="26" viewBox="0 0 95 26" fill="none" xmlns="http://www.w3.org/2000/svg">
<path d="M35.6371 6.70251H30.4302C30.0738 6.70251 29.7708 6.96138 29.7152 7.31313L27.6094 20.665C27.5674 20.9285 27.7714 21.166 28.0387 21.166H30.5245C30.8809 21.166 31.1839 20.9072 31.2395 20.5546L31.8075 16.9535C31.8623 16.6009 32.1661 16.3421 32.5215 16.3421H34.1699C37.5999 16.3421 39.5794 14.6823 40.0963 11.3932C40.3293 9.95427 40.1063 8.82366 39.4325 8.03185C38.6924 7.16237 37.3798 6.70251 35.6371 6.70251ZM36.2377 11.579C35.9531 13.4474 34.5255 13.4474 33.1452 13.4474H32.3595L32.9107 9.95809C32.9434 9.74719 33.1262 9.59187 33.3393 9.59187H33.6994C34.6397 9.59187 35.5267 9.59187 35.985 10.1279C36.2583 10.4476 36.3421 10.9227 36.2377 11.579Z" fill="#253B80"/>
<path d="M51.2006 11.5189H48.7072C48.4948 11.5189 48.3113 11.6742 48.2786 11.8851L48.1682 12.5826L47.9938 12.3298C47.454 11.5463 46.2503 11.2844 45.0488 11.2844C42.2935 11.2844 39.9402 13.3713 39.4818 16.2988C39.2435 17.7591 39.5824 19.1553 40.4107 20.1291C41.1705 21.0245 42.2577 21.3976 43.5513 21.3976C45.7714 21.3976 47.0025 19.97 47.0025 19.97L46.8914 20.6628C46.8495 20.9278 47.0535 21.1654 47.3192 21.1654H49.5653C49.9223 21.1654 50.2238 20.9065 50.2801 20.554L51.6278 12.0199C51.6704 11.7572 51.4671 11.5189 51.2006 11.5189ZM47.725 16.3718C47.4844 17.7963 46.3538 18.7526 44.9119 18.7526C44.1878 18.7526 43.6091 18.5204 43.2376 18.0804C42.8691 17.6432 42.729 17.0212 42.8463 16.3284C43.0709 14.9161 44.2205 13.9286 45.6404 13.9286C46.3485 13.9286 46.924 14.1639 47.3033 14.6078C47.6831 15.0562 47.8339 15.6821 47.725 16.3718Z" fill="#253B80"/>
<path d="M64.4809 11.519H61.9753C61.7362 11.519 61.5116 11.6377 61.3761 11.8364L57.9203 16.9269L56.4555 12.0352C56.3633 11.7291 56.0809 11.519 55.7611 11.519H53.2989C52.9996 11.519 52.7918 11.8113 52.887 12.093L55.6468 20.1923L53.0522 23.8552C52.8482 24.1437 53.0537 24.5405 53.4062 24.5405H55.9088C56.1464 24.5405 56.3686 24.4248 56.5034 24.2298L64.8373 12.2003C65.0367 11.9126 64.8319 11.519 64.4809 11.519Z" fill="#253B80"/>
<path d="M72.7769 6.70251H67.5693C67.2137 6.70251 66.9106 6.96138 66.8551 7.31313L64.7491 20.665C64.7073 20.9285 64.9113 21.166 65.1771 21.166H67.8494C68.0976 21.166 68.31 20.9849 68.3488 20.7382L68.9465 16.9535C69.0014 16.6009 69.3052 16.3421 69.6607 16.3421H71.3083C74.7389 16.3421 76.7178 14.6823 77.2354 11.3932C77.4692 9.95427 77.2445 8.82366 76.5707 8.03185C75.8314 7.16237 74.5196 6.70251 72.7769 6.70251ZM73.3776 11.579C73.0936 13.4474 71.6661 13.4474 70.285 13.4474H69.5L70.052 9.95809C70.0847 9.74719 70.2659 9.59187 70.4799 9.59187H70.84C71.7796 9.59187 72.6673 9.59187 73.1256 10.1279C73.399 10.4476 73.4819 10.9227 73.3776 11.579Z" fill="#179BD7"/>
<path d="M88.3402 11.5189H85.8482C85.6344 11.5189 85.4524 11.6742 85.4204 11.8851L85.31 12.5826L85.1348 12.3298C84.595 11.5463 83.3921 11.2844 82.1907 11.2844C79.4354 11.2844 77.0828 13.3713 76.6244 16.2988C76.3869 17.7591 76.7242 19.1553 77.5525 20.1291C78.3138 21.0245 79.3995 21.3976 80.6931 21.3976C82.9132 21.3976 84.1443 19.97 84.1443 19.97L84.0332 20.6628C83.9913 20.9278 84.1953 21.1654 84.4626 21.1654H86.7079C87.0634 21.1654 87.3664 20.9065 87.422 20.554L88.7704 12.0199C88.8114 11.7572 88.6074 11.5189 88.3402 11.5189ZM84.8646 16.3718C84.6256 17.7963 83.4934 18.7526 82.0514 18.7526C81.3288 18.7526 80.7487 18.5204 80.3771 18.0804C80.0087 17.6432 79.8701 17.0212 79.9858 16.3284C80.2119 14.9161 81.36 13.9286 82.78 13.9286C83.488 13.9286 84.0637 14.1639 84.4428 14.6078C84.8243 15.0562 84.975 15.6821 84.8646 16.3718Z" fill="#179BD7"/>
<path d="M91.2796 7.06885L89.1424 20.6652C89.1006 20.9287 89.3046 21.1662 89.5703 21.1662H91.7188C92.0759 21.1662 92.379 20.9073 92.4337 20.5548L94.5412 7.20361C94.5831 6.94018 94.3791 6.70187 94.1133 6.70187H91.7074C91.495 6.70264 91.3123 6.85796 91.2796 7.06885Z" fill="#179BD7"/>
<path d="M5.9857 23.7608L6.3839 21.2315L5.49691 21.2109H1.26147L4.20489 2.54779C4.21402 2.49145 4.24372 2.43892 4.28711 2.40161C4.33051 2.3643 4.38609 2.34375 4.44395 2.34375H11.5855C13.9563 2.34375 15.5925 2.83711 16.4468 3.81088C16.8473 4.2677 17.1023 4.74507 17.2257 5.27041C17.3551 5.82163 17.3573 6.48021 17.231 7.28343L17.2218 7.34206V7.85674L17.6223 8.08363C17.9596 8.26254 18.2276 8.46735 18.4332 8.70185C18.7758 9.09243 18.9973 9.58883 19.091 10.1774C19.1877 10.7826 19.1557 11.5029 18.9973 12.3183C18.8146 13.2563 18.5192 14.0733 18.1203 14.7417C17.7533 15.3577 17.2857 15.8685 16.7308 16.2644C16.2008 16.6405 15.5712 16.9261 14.8593 17.1087C14.1695 17.2884 13.383 17.379 12.5205 17.379H11.9646C11.5672 17.379 11.1812 17.5222 10.8782 17.7787C10.5744 18.0406 10.3734 18.3985 10.3117 18.7898L10.2699 19.0174L9.56637 23.4752L9.53439 23.639C9.52602 23.6907 9.51156 23.7166 9.49024 23.7341C9.4712 23.7501 9.44379 23.7608 9.41714 23.7608H5.9857Z" fill="#253B80"/>
<path d="M18.0005 7.40149C17.9791 7.53778 17.9548 7.6771 17.9273 7.82024C16.9855 12.6556 13.7635 14.326 9.64833 14.326H7.55307C7.04982 14.326 6.62573 14.6914 6.54731 15.1879L5.47456 21.9914L5.17078 23.9199C5.11977 24.2457 5.37102 24.5397 5.69992 24.5397H9.41612C9.85618 24.5397 10.23 24.22 10.2993 23.7859L10.3358 23.5971L11.0355 19.1569L11.0804 18.9132C11.149 18.4778 11.5236 18.1579 11.9637 18.1579H12.5194C16.1199 18.1579 18.9385 16.6962 19.7623 12.4661C20.1063 10.6989 19.9282 9.22342 19.0176 8.18569C18.742 7.87277 18.4001 7.61315 18.0005 7.40149Z" fill="#179BD7"/>
<path d="M17.0152 7.00864C16.8714 6.96677 16.7229 6.9287 16.5707 6.89443C16.4176 6.86093 16.2608 6.83125 16.0994 6.80536C15.5344 6.714 14.9154 6.67059 14.2523 6.67059H8.6548C8.517 6.67059 8.38604 6.70181 8.26879 6.75815C8.01069 6.88225 7.81883 7.12665 7.77239 7.42587L6.58162 14.9679L6.54736 15.1879C6.62578 14.6915 7.04986 14.326 7.55311 14.326H9.64837C13.7635 14.326 16.9856 12.6548 17.9274 7.82025C17.9555 7.67711 17.9792 7.53778 18.0004 7.4015C17.7621 7.27511 17.504 7.167 17.2262 7.07487C17.1576 7.05204 17.0868 7.02995 17.0152 7.00864Z" fill="#222D65"/>
<path d="M7.77294 7.42584C7.81937 7.12663 8.01124 6.88223 8.26934 6.75889C8.38735 6.70256 8.51755 6.67134 8.65535 6.67134H14.2529C14.916 6.67134 15.5349 6.71474 16.0999 6.80609C16.2614 6.83198 16.4181 6.86168 16.5712 6.89518C16.7235 6.92944 16.872 6.9675 17.0158 7.00938C17.0874 7.0307 17.1582 7.05278 17.2275 7.07485C17.5054 7.16698 17.7635 7.27586 18.0018 7.40148C18.2819 5.61457 17.9995 4.39792 17.0333 3.29624C15.9682 2.0834 14.0457 1.56415 11.5858 1.56415H4.44427C3.94178 1.56415 3.51314 1.9296 3.43547 2.42676L0.460852 21.2818C0.402228 21.6548 0.690021 21.9914 1.06613 21.9914H5.47516L6.58217 14.9678L7.77294 7.42584Z" fill="#253B80"/>
</svg>
