<svg width="150" height="24" fill="none" xmlns="http://www.w3.org/2000/svg"><path d="m12.564 20.106-6.09 3.669c-.27.171-.551.245-.845.22a1.419 1.419 0 0 1-.77-.293 1.76 1.76 0 0 1-.514-.642c-.122-.256-.146-.544-.073-.863l1.614-6.934-5.393-4.66a1.402 1.402 0 0 1-.458-.753 1.47 1.47 0 0 1 .054-.824c.097-.268.244-.489.44-.66.197-.173.466-.283.808-.33l7.118-.625 2.751-6.53c.123-.294.312-.514.57-.66.257-.148.52-.221.788-.221s.53.073.788.22c.257.147.447.367.57.66l2.751 6.531 7.118.624c.342.049.611.159.807.33.196.171.343.392.44.66.098.27.117.545.056.827a1.39 1.39 0 0 1-.46.751l-5.393 4.66 1.615 6.934c.073.318.049.606-.074.863a1.746 1.746 0 0 1-.513.642c-.22.17-.477.268-.77.293a1.322 1.322 0 0 1-.845-.22l-6.09-3.669zm30.999 0-6.09 3.669c-.27.171-.55.245-.844.22a1.418 1.418 0 0 1-.77-.293 1.76 1.76 0 0 1-.514-.642c-.123-.256-.147-.544-.074-.863l1.615-6.934-5.394-4.66a1.402 1.402 0 0 1-.458-.753 1.47 1.47 0 0 1 .055-.824c.097-.268.243-.489.44-.66.197-.173.466-.283.807-.33l7.118-.625 2.752-6.53a1.31 1.31 0 0 1 .569-.66c.257-.148.52-.221.788-.221s.53.073.788.22c.258.147.447.367.57.66l2.751 6.531 7.118.624c.343.049.612.159.807.33.196.171.343.392.44.66.099.27.117.545.056.827-.06.282-.213.532-.459.751l-5.393 4.66 1.614 6.934c.073.318.049.606-.073.863a1.745 1.745 0 0 1-.514.642c-.22.17-.477.268-.77.293a1.322 1.322 0 0 1-.844-.22l-6.09-3.669zm30.999 0-6.09 3.669c-.27.171-.55.245-.844.22a1.419 1.419 0 0 1-.77-.293 1.76 1.76 0 0 1-.514-.642c-.122-.256-.147-.544-.073-.863l1.614-6.934-5.394-4.66a1.401 1.401 0 0 1-.457-.753 1.47 1.47 0 0 1 .054-.824c.097-.268.243-.489.44-.66.197-.173.466-.283.807-.33l7.118-.625 2.752-6.53c.122-.294.312-.514.57-.66A1.56 1.56 0 0 1 74.562 0c.269 0 .531.073.788.22.258.147.448.367.57.66l2.752 6.531 7.117.624c.343.049.612.159.808.33.195.171.342.392.44.66.098.27.116.545.056.827a1.39 1.39 0 0 1-.46.751l-5.393 4.66 1.614 6.934c.074.318.05.606-.073.863a1.745 1.745 0 0 1-.514.642c-.22.17-.477.268-.77.293a1.321 1.321 0 0 1-.844-.22l-6.09-3.669zm31 0-6.09 3.669c-.27.171-.55.245-.844.22a1.418 1.418 0 0 1-.77-.293 1.76 1.76 0 0 1-.515-.642c-.122-.256-.146-.544-.073-.863l1.614-6.934-5.393-4.66a1.401 1.401 0 0 1-.458-.753 1.47 1.47 0 0 1 .054-.824c.097-.268.244-.489.44-.66.197-.173.466-.283.808-.33l7.118-.625 2.751-6.53c.123-.294.312-.514.57-.66.257-.148.52-.221.788-.221s.531.073.788.22c.257.147.447.367.569.66l2.752 6.531 7.118.624c.342.049.611.159.807.33.196.171.343.392.44.66.098.27.117.545.056.827a1.39 1.39 0 0 1-.459.751l-5.394 4.66 1.615 6.934c.073.318.049.606-.074.863a1.742 1.742 0 0 1-.513.642c-.22.17-.477.268-.771.293a1.323 1.323 0 0 1-.844-.22l-6.09-3.669zm30.999 0-6.09 3.669a1.334 1.334 0 0 1-.844.22 1.418 1.418 0 0 1-.771-.293 1.757 1.757 0 0 1-.513-.642c-.123-.256-.147-.544-.074-.863l1.615-6.934-5.394-4.66a1.408 1.408 0 0 1-.458-.753 1.475 1.475 0 0 1 .055-.824c.097-.268.243-.489.44-.66.197-.173.466-.283.807-.33l7.118-.625 2.752-6.53a1.31 1.31 0 0 1 .569-.66c.257-.148.52-.221.788-.221s.531.073.788.22c.258.147.447.367.57.66l2.751 6.531 7.118.624c.343.049.612.159.807.33.196.171.343.392.441.66.098.27.116.545.055.827-.06.282-.213.532-.459.751l-5.393 4.66 1.614 6.934c.073.318.049.606-.073.863a1.754 1.754 0 0 1-.514.642c-.22.17-.477.268-.77.293a1.321 1.321 0 0 1-.844-.22l-6.091-3.669z" fill="#F2D74C"/></svg>