<svg width="15" height="15" fill="none" xmlns="http://www.w3.org/2000/svg"><mask id="a" fill="#fff"><path d="M0 7.309a7.309 7.309 0 1 1 14.618 0A7.309 7.309 0 0 1 0 7.309z"/></mask><path d="M0 7.309a7.309 7.309 0 1 1 14.618 0A7.309 7.309 0 0 1 0 7.309z" fill="#95DF89"/><path d="M7.309 14.618v-2.436a4.873 4.873 0 0 1-4.873-4.873h-4.872c0 5.382 4.363 9.745 9.745 9.745v-2.436zm7.31-7.309h-2.437a4.873 4.873 0 0 1-4.873 4.873v4.872c5.382 0 9.745-4.363 9.745-9.745h-2.436zM7.308 0v2.436a4.873 4.873 0 0 1 4.873 4.873h4.872c0-5.382-4.363-9.745-9.745-9.745V0zm0 0v-2.436c-5.382 0-9.745 4.363-9.745 9.745h4.872A4.873 4.873 0 0 1 7.31 2.436V0z" fill="#ADF4A1" mask="url(#a)"/></svg>