<svg width="19" height="18" viewBox="0 0 19 18" fill="none" xmlns="http://www.w3.org/2000/svg">
<path d="M2.90793 18.2461H15.1021C17.2014 18.2461 18.2462 17.2014 18.2462 15.1323V2.86773C18.2462 0.798549 17.2014 -0.246094 15.1021 -0.246094H2.90793C0.818649 -0.246094 -0.246094 0.788478 -0.246094 2.86773V15.1323C-0.246094 17.2115 0.818649 18.2461 2.90793 18.2461ZM7.63894 14.1378C7.28742 14.1378 7.02621 13.9872 6.74498 13.6456L3.84209 10.0697C3.69141 9.87891 3.60102 9.63784 3.60102 9.41686C3.60102 8.94475 3.97268 8.58316 4.41462 8.58316C4.70592 8.58316 4.95702 8.69365 5.18806 9.00505L7.58875 12.1088L12.2595 4.62556C12.4503 4.31416 12.7115 4.16352 12.9727 4.16352C13.4146 4.16352 13.8465 4.45478 13.8465 4.93696C13.8465 5.15794 13.716 5.39901 13.5854 5.59988L8.48271 13.6456C8.26173 13.9771 7.98046 14.1378 7.63894 14.1378Z" fill="#4ECE7E"/>
</svg>
