<svg width="14" height="22" viewBox="0 0 14 22" fill="none" xmlns="http://www.w3.org/2000/svg">
<path d="M2.368 7.212L5.57298 4.884C5.93278 4.6207 6.37038 4.48551 6.81598 4.5C7.35948 4.51355 7.88528 4.69611 8.32028 5.02228C8.75518 5.34846 9.07778 5.80205 9.24298 6.32C9.42898 6.903 9.59898 7.297 9.75298 7.502C10.2183 8.1228 10.8219 8.6266 11.5159 8.9734C12.2099 9.3203 12.9752 9.5005 13.751 9.5V11.5C12.7183 11.5011 11.6982 11.2733 10.7641 10.8329C9.82998 10.3925 9.00518 9.7504 8.34898 8.953L7.65198 12.908L9.71298 14.638L11.936 20.746L10.056 21.43L8.01598 15.826L4.626 12.981C4.3478 12.7564 4.13492 12.4612 4.00952 12.1264C3.88412 11.7915 3.85079 11.4291 3.913 11.077L4.422 8.192L3.745 8.684L1.618 11.612L0 10.436L2.351 7.2L2.368 7.212ZM8.25098 4C7.72058 4 7.21188 3.78929 6.83678 3.41421C6.46168 3.03914 6.25098 2.53043 6.25098 2C6.25098 1.46957 6.46168 0.96086 6.83678 0.58579C7.21188 0.21071 7.72058 0 8.25098 0C8.78148 0 9.29018 0.21071 9.66518 0.58579C10.0403 0.96086 10.251 1.46957 10.251 2C10.251 2.53043 10.0403 3.03914 9.66518 3.41421C9.29018 3.78929 8.78148 4 8.25098 4ZM5.27898 17.181L2.065 21.011L0.533 19.726L3.509 16.18L4.255 14L6.04598 15.5L5.27898 17.181Z" fill="#00264C"/>
</svg>
